<svg width="466" height="496" viewBox="42.5390625 -486.9140625 464.4140625 494.6484375" xmlns="http://www.w3.org/2000/svg" xmlns:xlink="http://www.w3.org/1999/xlink">
                  <path d="M193.01-38.32L193.01-38.32L285.82-33.05L243.63 7.73L81.56 0L126.91-43.59L164.88-39.38Q207.77-66.45 217.62-150.12L217.62-150.12L221.48-184.22L251.37-450.70Q91.41-420.47 91.41-330.12L91.41-330.12Q91.41-293.91 106.52-265.78L106.52-265.78L49.92-215.86Q42.54-242.93 42.54-270.70L42.54-270.70Q42.54-366.33 123.75-426.62Q204.96-486.91 333.98-486.91L333.98-486.91Q506.95-486.91 506.95-373.71L506.95-373.71Q506.95-301.99 442.62-251.02Q378.28-200.04 279.49-194.06L279.49-194.06Q271.05-112.15 257.34-87.19Q243.63-62.23 193.01-38.32ZM308.32-454.92L308.32-454.92L283.36-230.63Q303.05-227.11 317.81-227.11L317.81-227.11Q452.46-227.11 452.46-344.88L452.46-344.88Q452.46-454.92 308.32-454.92Z"/>
                </svg>