<svg width="1176" height="947" viewBox="13.7109375 -622.6171875 1174.5703125 945.3515625" xmlns="http://www.w3.org/2000/svg" xmlns:xlink="http://www.w3.org/1999/xlink">
                  <path d="M1188.28-489.73L1188.28-489.73Q1188.28-415.20 1101.09-356.84Q1013.91-298.48 903.52-298.48L903.52-298.48Q857.81-298.48 805.61-310.78Q753.40-323.09 690.47-352.62L690.47-352.62Q654.61-369.49 595.02-403.95Q535.43-438.40 488.32-465.82L488.32-465.82Q376.88-530.16 298.48-560.21Q220.08-590.27 165.59-590.27L165.59-590.27Q117.42-590.27 88.42-566.72Q59.41-543.16 59.41-504.49L59.41-504.49Q59.41-500.27 60.29-493.77Q61.17-487.27 62.58-478.83L62.58-478.83L13.71-451.05Q13.71-524.53 65.04-571.99Q116.37-619.45 195.82-619.45L195.82-619.45Q250.31-619.45 345.23-579.55Q440.16-539.65 562.15-466.52L562.15-466.52Q592.38-448.59 648.63-415.90Q704.88-383.20 768.87-358.95L768.87-358.95Q803.32-345.94 844.80-337.50Q886.29-329.06 927.77-329.06L927.77-329.06Q978.75-329.06 1025.68-341.89Q1072.62-354.73 1102.50-377.23L1102.50-377.23Q1123.24-393.05 1135.55-415.55Q1147.85-438.05 1147.85-466.52L1147.85-466.52Q1147.85-522.07 1098.98-557.23Q1050.12-592.38 973.13-592.38L973.13-592.38Q905.98-592.38 818.26-552.30Q730.55-512.23 621.91-432.07L621.91-432.07Q600.47-416.25 533.85-356.66Q467.23-297.07 414.14-263.67L414.14-263.67Q364.92-232.38 313.95-215.86Q262.97-199.34 213.05-199.34L213.05-199.34Q162.77-199.34 119.00-225.53Q75.23-251.72 75.23-305.51L75.23-305.51Q75.23-367.03 126.91-410.80Q178.59-454.57 251.37-454.57L251.37-454.57Q307.97-454.57 370.02-432.60Q432.07-410.63 498.16-371.95L498.16-371.95Q563.55-333.63 643.89-287.75Q724.22-241.88 788.20-216.56L788.20-216.56Q837.07-197.23 870.82-192.13Q904.57-187.03 935.16-187.03L935.16-187.03Q1027.62-187.03 1063.83-225.35Q1100.04-263.67 1100.04-297.07L1100.04-297.07Q1100.04-344.88 1055.39-386.54Q1010.74-428.20 926.02-428.20L926.02-428.20Q877.85-428.20 827.58-409.92Q777.30-391.64 714.73-342.77L714.73-342.77Q644.06-287.58 575.86-225.53Q507.66-163.48 457.03-125.51L457.03-125.51Q413.09-93.16 364.04-75.76Q315-58.36 262.27-58.36L262.27-58.36Q202.85-58.36 158.73-88.77Q114.61-119.18 114.61-172.27L114.61-172.27Q114.61-229.22 164.00-274.75Q213.40-320.27 280.55-320.27L280.55-320.27Q312.54-320.27 353.50-306.56Q394.45-292.85 422.58-278.09L422.58-278.09Q465.12-255.94 591.15-188.96Q717.19-121.99 766.05-96.68L766.05-96.68Q798.05-80.16 840.76-66.80Q883.48-53.44 922.15-53.44L922.15-53.44Q972.77-53.44 1009.51-78.05Q1046.25-102.66 1046.25-141.33L1046.25-141.33Q1046.25-184.92 1004.94-214.10Q963.63-243.28 902.81-243.28L902.81-243.28Q877.85-243.28 846.56-235.20Q815.27-227.11 781.17-206.37L781.17-206.37Q729.14-174.73 682.21-135.88Q635.27-97.03 536.48-15.12L536.48-15.12Q476.72 34.45 418.71 62.05Q360.70 89.65 307.62 89.65L307.62 89.65Q249.61 89.65 213.57 57.30Q177.54 24.96 177.54-27.07L177.54-27.07Q177.54-47.46 187.21-74.36Q196.88-101.25 213.40-119.18L213.40-119.18Q233.09-141.33 260.51-153.46Q287.93-165.59 323.44-165.59L323.44-165.59Q350.86-165.59 390.06-153.63Q429.26-141.68 509.06-94.57L509.06-94.57L672.54 1.76Q744.26 43.95 796.64 62.40Q849.02 80.86 886.64 80.86L886.64 80.86Q933.05 80.86 961.88 57.48Q990.70 34.10 990.70-3.87L990.70-3.87Q990.70-15.47 986.13-29.53Q981.56-43.59 973.13-54.84L973.13-54.84Q958.71-74.18 935.68-84.38Q912.66-94.57 884.18-94.57L884.18-94.57Q833.55-94.57 784.51-67.32Q735.47-40.08 696.45-8.79L696.45-8.79Q651.80 26.72 622.62 66.80Q593.44 106.88 593.44 134.65L593.44 134.65Q593.44 149.77 599.94 164.53Q606.45 179.30 614.53 194.77L614.53 194.77Q625.43 215.16 630.88 228.34Q636.33 241.52 636.33 254.53L636.33 254.53Q636.33 274.22 615.76 298.48Q595.20 322.73 578.67 322.73L578.67 322.73Q574.10 322.73 571.11 319.92Q568.13 317.11 566.37 311.48L566.37 311.48Q581.13 303.75 588.34 293.73Q595.55 283.71 595.55 271.05L595.55 271.05Q595.55 263.32 591.15 251.72Q586.76 240.12 577.62 225L577.62 225L569.88 212.34Q561.09 197.23 556.52 184.22Q551.95 171.21 551.95 159.96L551.95 159.96Q551.95 120.23 590.10 71.54Q628.24 22.85 680.98-20.04L680.98-20.04Q735.47-64.34 791.89-92.46Q848.32-120.59 910.90-120.59L910.90-120.59Q945.70-120.59 971.54-108.63Q997.38-96.68 1011.80-77.34L1011.80-77.34Q1020.23-66.45 1024.63-52.03Q1029.02-37.62 1029.02-21.45L1029.02-21.45Q1029.02 31.99 979.98 68.03Q930.94 104.06 858.52 104.06L858.52 104.06Q820.90 104.06 772.73 90.35Q724.57 76.64 662.70 40.08L662.70 40.08L480.23-67.85Q448.95-86.48 394.45-112.68Q339.96-138.87 302.34-138.87L302.34-138.87Q260.51-138.87 234.32-114.79Q208.13-90.70 208.13-51.68L208.13-51.68Q208.13-5.63 245.04 24.96Q281.95 55.55 337.50 55.55L337.50 55.55Q380.04 55.55 427.68 33.05Q475.31 10.55 522.07-27.77L522.07-27.77Q600.12-91.76 656.54-139.92Q712.97-188.09 765.35-220.08L765.35-220.08Q791.72-236.25 841.64-252.07Q891.56-267.89 933.05-267.89L933.05-267.89Q1014.96-267.89 1051.17-235.90Q1087.38-203.91 1087.38-161.02L1087.38-161.02Q1087.38-132.54 1071.21-108.46Q1055.04-84.38 1029.38-66.45L1029.38-66.45Q999.84-45.70 961.88-37.09Q923.91-28.48 891.21-28.48L891.21-28.48Q862.03-28.48 821.43-39.02Q780.82-49.57 714.38-83.67L714.38-83.67Q660.59-111.45 566.02-161.89Q471.45-212.34 380.74-255.94L380.74-255.94Q364.22-264.02 326.25-276.68Q288.28-289.34 259.80-289.34L259.80-289.34Q207.07-289.34 177.01-260.51Q146.95-231.68 146.95-195.82L146.95-195.82Q146.95-146.25 191.95-118.30Q236.95-90.35 302.70-90.35L302.70-90.35Q346.99-90.35 384.61-105.82Q422.23-121.29 446.13-139.22L446.13-139.22Q496.76-177.19 564.79-239.06Q632.81-300.94 703.83-356.48L703.83-356.48Q776.60-413.09 833.20-433.48Q889.80-453.87 947.81-453.87L947.81-453.87Q1032.54-453.87 1085.63-417.66Q1138.71-381.45 1138.71-319.22L1138.71-319.22Q1138.71-257.34 1071.56-208.65Q1004.41-159.96 906.33-159.96L906.33-159.96Q870.82-159.96 830.57-168.22Q790.31-176.48 751.29-193.36L751.29-193.36Q698.20-216.21 622.09-259.45Q545.98-302.70 464.77-348.40L464.77-348.40Q390.23-390.23 333.63-409.04Q277.03-427.85 230.27-427.85L230.27-427.85Q175.08-427.85 142.38-401.66Q109.69-375.47 109.69-330.82L109.69-330.82Q109.69-283.71 154.16-256.46Q198.63-229.22 251.37-229.22L251.37-229.22Q285.47-229.22 322.21-239.77Q358.95-250.31 399.02-275.27L399.02-275.27Q453.87-309.73 511.52-361.05Q569.18-412.38 605.39-440.86L605.39-440.86Q720.70-531.56 818.79-577.09Q916.88-622.62 997.73-622.62L997.73-622.62Q1083.87-622.62 1136.07-586.23Q1188.28-549.84 1188.28-489.73Z"/>
                </svg>