<svg width="385" height="443" viewBox="20.7421875 -432.7734375 383.203125 441.2109375" xmlns="http://www.w3.org/2000/svg" xmlns:xlink="http://www.w3.org/1999/xlink">
                  <path d="M213.05 8.44L213.05 8.44Q201.80-34.45 180.53-71.89Q159.26-109.34 83.67-208.83L83.67-208.83Q48.16-255.59 34.45-283.36Q20.74-311.13 20.74-340.66L20.74-340.66Q20.74-379.34 46.76-405.88Q72.77-432.42 111.09-432.42L111.09-432.42Q183.52-432.42 213.05-344.18L213.05-344.18Q225-388.83 252.77-410.80Q280.55-432.77 313.24-432.77L313.24-432.77Q351.56-432.77 377.75-406.41Q403.95-380.04 403.95-344.88L403.95-344.88Q403.95-313.95 389.71-280.55Q375.47-247.15 328.71-188.44L328.71-188.44Q228.52-61.88 213.05 8.44Z"/>
                </svg>