<svg width="503" height="487" viewBox="42.5390625 -477.421875 501.328125 485.15625" xmlns="http://www.w3.org/2000/svg" xmlns:xlink="http://www.w3.org/1999/xlink">
                  <path d="M306.21-434.88L285.47-248.20L360.70-248.20Q413.09-248.20 468.63-257.70L468.63-257.70Q427.15-208.13 390.59-208.13L390.59-208.13L360.70-208.83L326.60-209.53L299.53-210.23L281.25-210.23L278.44-184.57L274.92-153.63Q268.95-104.06 253.30-81.74Q237.66-59.41 193.01-38.32L193.01-38.32L290.39-33.05L248.20 7.73L81.56 0L126.91-43.59L164.88-39.38Q207.77-66.45 217.62-150.12L217.62-150.12L221.48-184.57L249.26-434.88L237.30-434.88Q169.10-434.88 130.25-406.93Q91.41-378.98 91.41-330.47L91.41-330.47Q91.41-301.29 107.58-270.70L107.58-270.70L50.63-215.86Q42.54-243.28 42.54-269.30L42.54-269.30Q42.54-367.73 124.45-428.55L124.45-428.55Q184.22-472.85 294.26-472.85L294.26-472.85L410.63-472.85Q476.02-472.85 543.87-477.42L543.87-477.42L515.74-405.35L510.12-392.34Q501.33-371.60 487.62-371.60L487.62-371.60Q485.16-371.60 482.34-371.95L482.34-371.95Q486.56-389.88 486.56-400.08L486.56-400.08Q486.56-423.28 461.95-429.08Q437.34-434.88 339.96-434.88L339.96-434.88L306.21-434.88Z"/>
                </svg>