<svg width="720" height="659" viewBox="50.625 -486.9140625 718.2421875 657.0703125" xmlns="http://www.w3.org/2000/svg" xmlns:xlink="http://www.w3.org/1999/xlink">
                  <path d="M342.77-23.91L342.77-23.91L349.10-17.58Q525.23 146.25 647.23 146.25L647.23 146.25Q674.65 146.25 692.75 130.08Q710.86 113.91 710.86 89.30L710.86 89.30Q710.86 78.05 704.88 65.74L704.88 65.74L766.41 31.99Q768.87 41.84 768.87 48.16L768.87 48.16Q768.87 95.98 723.69 133.07Q678.52 170.16 620.16 170.16L620.16 170.16Q551.60 170.16 457.03 123.93Q362.46 77.70 279.14 3.52L279.14 3.52Q240.47 14.41 204.96 14.41L204.96 14.41Q137.81 14.41 94.22-40.25Q50.63-94.92 50.63-179.65L50.63-179.65Q50.63-303.75 134.47-395.33Q218.32-486.91 332.23-486.91L332.23-486.91Q403.24-486.91 446.84-433.48Q490.43-380.04 490.43-293.20L490.43-293.20Q490.43-120.23 342.77-23.91ZM328.36-38.67L328.36-38.67Q423.98-104.77 423.98-258.75L423.98-258.75Q423.98-344.53 385.49-401.66Q346.99-458.79 289.34-458.79L289.34-458.79Q215.86-458.79 166.64-389.00Q117.42-319.22 117.42-214.80L117.42-214.80Q117.42-123.40 154.51-71.02Q191.60-18.63 259.45-14.06L259.45-14.06L307.62-63.63Q312.19-58.36 313.59-56.95L313.59-56.95L323.44-44.30Q324.49-43.24 328.36-38.67Z"/>
                </svg>