<svg width="26" height="26" viewBox="0 0 26 26" fill="none" xmlns="http://www.w3.org/2000/svg">
<path fill-rule="evenodd" clip-rule="evenodd" d="M3.29857 12.6482C3.29857 17.9244 7.12403 21.5194 11.421 22.263C11.5379 22.2832 11.6496 22.3263 11.7498 22.3897C11.8501 22.4532 11.9368 22.5358 12.0052 22.6327C12.0735 22.7297 12.122 22.8392 12.148 22.9549C12.1741 23.0707 12.177 23.1904 12.1568 23.3073C12.1365 23.4242 12.0934 23.5359 12.03 23.6362C11.9665 23.7364 11.884 23.8231 11.787 23.8915C11.69 23.9598 11.5805 24.0084 11.4648 24.0344C11.349 24.0604 11.2293 24.0633 11.1124 24.0431C6.0667 23.1695 1.49243 18.9159 1.49243 12.6482C1.49243 9.98402 2.70403 7.89015 4.11843 6.29895C5.13243 5.15842 6.29203 4.23109 7.22457 3.52215H4.38883C4.15898 3.52215 3.93854 3.43084 3.77601 3.26831C3.61347 3.10578 3.52217 2.88534 3.52217 2.65549C3.52217 2.42563 3.61347 2.20519 3.77601 2.04266C3.93854 1.88013 4.15898 1.78882 4.38883 1.78882H9.58883C9.81869 1.78882 10.0391 1.88013 10.2017 2.04266C10.3642 2.20519 10.4555 2.42563 10.4555 2.65549V7.85548C10.4555 8.08534 10.3642 8.30578 10.2017 8.46831C10.0391 8.63084 9.81869 8.72215 9.58883 8.72215C9.35898 8.72215 9.13854 8.63084 8.97601 8.46831C8.81347 8.30578 8.72217 8.08534 8.72217 7.85548V4.65575L8.72043 4.65922C7.72897 5.40455 6.5191 6.31802 5.47043 7.49842C4.2311 8.89202 3.29857 10.5768 3.29857 12.6464V12.6482ZM22.5524 13.3519C22.5524 8.13108 18.8084 4.55869 14.567 3.76135C14.4487 3.74129 14.3357 3.69789 14.2344 3.63369C14.1332 3.56948 14.0457 3.48575 13.9772 3.38738C13.9086 3.28901 13.8603 3.17797 13.8351 3.06074C13.8099 2.94351 13.8083 2.82244 13.8304 2.70459C13.8525 2.58673 13.8979 2.47446 13.9638 2.37432C14.0298 2.27418 14.115 2.18818 14.2145 2.12133C14.3141 2.05447 14.4259 2.00812 14.5436 1.98495C14.6612 1.96179 14.7823 1.96229 14.8998 1.98642C19.8814 2.92242 24.3586 7.15175 24.3586 13.3519C24.3586 16.016 23.147 18.1082 21.7326 19.7011C20.7186 20.8416 19.559 21.769 18.6264 22.4779H21.4622C21.692 22.4779 21.9125 22.5692 22.075 22.7317C22.2375 22.8943 22.3288 23.1147 22.3288 23.3446C22.3288 23.5744 22.2375 23.7948 22.075 23.9574C21.9125 24.1199 21.692 24.2112 21.4622 24.2112H16.2622C16.0323 24.2112 15.8119 24.1199 15.6493 23.9574C15.4868 23.7948 15.3955 23.5744 15.3955 23.3446V18.1446C15.3955 17.9147 15.4868 17.6943 15.6493 17.5317C15.8119 17.3692 16.0323 17.2779 16.2622 17.2779C16.492 17.2779 16.7125 17.3692 16.875 17.5317C17.0375 17.6943 17.1288 17.9147 17.1288 18.1446V21.3426H17.1323C18.122 20.5938 19.3336 19.682 20.3806 18.4999C21.6199 17.108 22.5524 15.4232 22.5524 13.3519Z" fill="#1C1F1E" stroke="#1C1F1E" stroke-width="0.2"/>
</svg>
