<svg width="30" height="30" viewBox="0 0 30 30" fill="none" xmlns="http://www.w3.org/2000/svg">
<path d="M14.9999 2.8125C12.8833 2.81234 10.8031 3.36343 8.9642 4.41151C7.12527 5.4596 5.591 6.96854 4.51245 8.78977C3.4339 10.611 2.84827 12.6817 2.8132 14.7981C2.77813 16.9144 3.29484 19.0034 4.31245 20.8594L3.31636 24.375C3.22343 24.6954 3.21821 25.0348 3.30123 25.3578C3.38425 25.6809 3.55247 25.9758 3.78834 26.2116C4.0242 26.4475 4.31905 26.6157 4.64211 26.6987C4.96517 26.7817 5.3046 26.7765 5.62495 26.6836L9.14057 25.6875C10.7698 26.5805 12.5816 27.0891 14.4376 27.1746C16.2935 27.2601 18.1444 26.9201 19.8489 26.1806C21.5533 25.4412 23.0661 24.3219 24.2716 22.9082C25.4772 21.4945 26.3436 19.824 26.8046 18.0242C27.2656 16.2244 27.309 14.343 26.9316 12.5238C26.5541 10.7047 25.7657 8.9959 24.6267 7.52811C23.4876 6.06032 22.0281 4.87238 20.3596 4.05508C18.6911 3.23778 16.8579 2.81276 14.9999 2.8125ZM14.9999 25.3125C13.1488 25.3108 11.3318 24.8131 9.73823 23.8711C9.59117 23.7891 9.4261 23.7448 9.25776 23.7422C9.17064 23.7423 9.08392 23.7541 8.99995 23.7773L5.10932 24.8906L6.2226 21C6.25685 20.8769 6.2662 20.7482 6.2501 20.6214C6.234 20.4946 6.19279 20.3724 6.12885 20.2617C4.96794 18.3049 4.48678 16.0191 4.7603 13.7603C5.03383 11.5015 6.04669 9.39658 7.64112 7.7734C9.23554 6.15023 11.322 5.09992 13.5756 4.78607C15.8291 4.47223 18.1232 4.91248 20.1004 6.03824C22.0777 7.164 23.6271 8.91207 24.5074 11.0102C25.3877 13.1083 25.5494 15.4386 24.9674 17.6381C24.3853 19.8377 23.0921 21.783 21.2893 23.1711C19.4865 24.5592 17.2752 25.3121 14.9999 25.3125ZM16.4062 15C16.4062 15.2781 16.3237 15.55 16.1692 15.7813C16.0147 16.0125 15.7951 16.1928 15.5381 16.2992C15.2811 16.4056 14.9984 16.4335 14.7256 16.3792C14.4528 16.325 14.2022 16.191 14.0056 15.9944C13.8089 15.7977 13.675 15.5471 13.6207 15.2743C13.5665 15.0016 13.5943 14.7188 13.7007 14.4619C13.8072 14.2049 13.9874 13.9853 14.2187 13.8307C14.4499 13.6762 14.7218 13.5938 14.9999 13.5938C15.3729 13.5938 15.7306 13.7419 15.9943 14.0056C16.258 14.2694 16.4062 14.627 16.4062 15ZM10.7812 15C10.7812 15.2781 10.6987 15.55 10.5442 15.7813C10.3897 16.0125 10.1701 16.1928 9.9131 16.2992C9.65614 16.4056 9.37339 16.4335 9.1006 16.3792C8.82782 16.325 8.57725 16.191 8.38058 15.9944C8.18391 15.7977 8.04998 15.5471 7.99572 15.2743C7.94146 15.0016 7.96931 14.7188 8.07574 14.4619C8.18218 14.2049 8.36242 13.9853 8.59368 13.8307C8.82494 13.6762 9.09682 13.5938 9.37495 13.5938C9.74791 13.5938 10.1056 13.7419 10.3693 14.0056C10.633 14.2694 10.7812 14.627 10.7812 15ZM22.0312 15C22.0312 15.2781 21.9487 15.55 21.7942 15.7813C21.6397 16.0125 21.4201 16.1928 21.1631 16.2992C20.9061 16.4056 20.6234 16.4335 20.3506 16.3792C20.0778 16.325 19.8272 16.191 19.6306 15.9944C19.4339 15.7977 19.3 15.5471 19.2457 15.2743C19.1915 15.0016 19.2193 14.7188 19.3257 14.4619C19.4322 14.2049 19.6124 13.9853 19.8437 13.8307C20.0749 13.6762 20.3468 13.5938 20.6249 13.5938C20.9979 13.5938 21.3556 13.7419 21.6193 14.0056C21.883 14.2694 22.0312 14.627 22.0312 15Z" fill="#1C1F1E" stroke="#1C1F1E" stroke-width="0.2"/>
</svg>
