<svg width="22" height="22" viewBox="0 0 22 22" fill="none" xmlns="http://www.w3.org/2000/svg">
<path d="M20.1438 13.8187C20.2343 13.9756 20.282 14.1535 20.2819 14.3345C20.2819 14.5156 20.2342 14.6935 20.1436 14.8503C20.053 15.0071 19.9227 15.1372 19.7659 15.2277C19.609 15.3182 19.4311 15.3657 19.25 15.3656C19.0685 15.3675 18.8899 15.3207 18.7327 15.23C18.5754 15.1393 18.4455 15.0081 18.3563 14.85L16.9555 12.4266C16.1666 12.9202 15.3175 13.3102 14.4289 13.5867L14.8758 16.1133C14.9005 16.2465 14.8985 16.3834 14.8698 16.5159C14.8412 16.6483 14.7865 16.7738 14.7089 16.8849C14.6314 16.9961 14.5325 17.0907 14.418 17.1633C14.3036 17.2359 14.1758 17.285 14.0422 17.3078L13.8617 17.325C13.6197 17.3247 13.3856 17.2393 13.2002 17.0838C13.0148 16.9282 12.89 16.7125 12.8477 16.4742L12.4094 14.0078C11.942 14.0677 11.4712 14.0964 11 14.0937C10.5261 14.0918 10.0527 14.0632 9.58204 14.0078L9.14376 16.4742C9.10141 16.7125 8.97663 16.9282 8.79125 17.0838C8.60586 17.2393 8.37169 17.3247 8.1297 17.325L7.94923 17.3078C7.81562 17.285 7.68788 17.2359 7.57342 17.1633C7.45896 17.0907 7.36008 16.9961 7.28251 16.8849C7.20495 16.7738 7.15025 16.6483 7.12161 16.5159C7.09296 16.3834 7.09093 16.2465 7.11564 16.1133L7.56251 13.5867C6.6767 13.3101 5.83037 12.9202 5.04454 12.4266L3.63517 14.8672C3.54394 15.0235 3.41351 15.1532 3.25676 15.2437C3.10001 15.3341 2.92238 15.3821 2.74142 15.3828C2.5603 15.3843 2.38215 15.3367 2.22579 15.2453C2.10837 15.1776 2.00543 15.0875 1.92287 14.98C1.8403 14.8726 1.77973 14.7499 1.74461 14.619C1.70949 14.4881 1.70052 14.3516 1.7182 14.2172C1.73589 14.0828 1.77988 13.9533 1.84767 13.8359L3.38595 11.1719C2.86541 10.7095 2.38528 10.2034 1.95079 9.65937C1.85586 9.55568 1.78314 9.43368 1.73708 9.30085C1.69103 9.16803 1.67262 9.02719 1.68298 8.88699C1.69335 8.74679 1.73226 8.61019 1.79735 8.48558C1.86243 8.36097 1.95231 8.25099 2.06145 8.16238C2.17059 8.07378 2.2967 8.00842 2.43203 7.97033C2.56735 7.93224 2.70903 7.92223 2.84837 7.9409C2.98771 7.95956 3.12175 8.00652 3.24228 8.07889C3.3628 8.15126 3.46726 8.2475 3.54923 8.36171C4.90704 10.0375 7.29611 12.0312 11 12.0312C14.7039 12.0312 17.093 10.0375 18.4508 8.36171C18.5328 8.2475 18.6372 8.15126 18.7577 8.07889C18.8783 8.00652 19.0123 7.95956 19.1517 7.9409C19.291 7.92223 19.4327 7.93224 19.568 7.97033C19.7033 8.00842 19.8294 8.07378 19.9386 8.16238C20.0477 8.25099 20.1376 8.36097 20.2027 8.48558C20.2678 8.61019 20.3067 8.74679 20.317 8.88699C20.3274 9.02719 20.309 9.16803 20.2629 9.30085C20.2169 9.43368 20.1442 9.55568 20.0492 9.65937C19.6127 10.2044 19.1328 10.7131 18.6141 11.1805L20.1438 13.8187Z" fill="#1C1F1E"/>
</svg>
