<svg width="26" height="26" viewBox="0 0 26 26" fill="none" xmlns="http://www.w3.org/2000/svg">
<path d="M16.0363 1.01215H12.9998V2.90994H15.0874V6.48413C15.0874 9.62343 12.5332 12.1776 9.39392 12.1776C6.25463 12.1776 3.70053 9.62348 3.70053 6.48418V2.90994H5.72487V1.01215H2.75163C2.22752 1.01215 1.80273 1.43693 1.80273 1.96104V6.48418C1.80273 10.6701 5.20802 14.0754 9.39397 14.0754C13.5799 14.0754 16.9852 10.6701 16.9852 6.48418V1.96104C16.9852 1.43693 16.5604 1.01215 16.0363 1.01215Z" fill="#1C1F1E"/>
<path d="M19.737 14.8662V19.3577C19.737 21.9738 17.6086 24.1022 14.9924 24.1022C12.3763 24.1022 10.2479 21.9738 10.2479 19.3577V13.1581H8.3501V19.3577C8.3501 23.0201 11.3296 26 14.9924 26C18.6549 26 21.6348 23.0201 21.6348 19.3577V14.8662H19.737Z" fill="#1C1F1E"/>
<path d="M20.6863 8.72992C18.7499 8.72992 17.175 10.3048 17.175 12.2409C17.175 14.1767 18.7499 15.7518 20.686 15.7518C22.6221 15.7518 24.197 14.1767 24.1973 12.2409C24.1972 10.3048 22.6221 8.72992 20.6863 8.72992ZM20.686 13.8541C19.7963 13.8541 19.0725 13.1304 19.0725 12.2409C19.0725 11.3515 19.7962 10.6278 20.686 10.6278C21.5754 10.6278 22.2991 11.3515 22.2991 12.2409C22.2991 13.1304 21.5754 13.8541 20.686 13.8541Z" fill="#1C1F1E"/>
<path d="M5.69328 0C5.16917 0 4.74438 0.424785 4.74438 0.948898V2.97324C4.74438 3.49736 5.16917 3.92214 5.69328 3.92214C6.2174 3.92214 6.64218 3.49736 6.64218 2.97324V0.948898C6.64218 0.424785 6.2174 0 5.69328 0Z" fill="#1C1F1E"/>
<path d="M13.0314 0C12.5073 0 12.0825 0.424785 12.0825 0.948898V2.97324C12.0825 3.49736 12.5073 3.92214 13.0314 3.92214C13.5555 3.92214 13.9803 3.49736 13.9803 2.97324V0.948898C13.9803 0.424785 13.5555 0 13.0314 0Z" fill="#1C1F1E"/>
</svg>
