<svg width="20" height="20" viewBox="0 0 20 20" fill="none" xmlns="http://www.w3.org/2000/svg">
<path d="M19.6094 9.61719C19.0412 8.47119 18.2891 7.42608 17.3828 6.52344C15.3594 4.50781 12.8125 3.4375 10 3.4375C7.1875 3.4375 4.64063 4.50781 2.61719 6.52344C1.71092 7.42608 0.958762 8.47119 0.390627 9.61719C0.340337 9.73855 0.314453 9.86863 0.314453 10C0.314453 10.1314 0.340337 10.2614 0.390627 10.3828C0.958762 11.5288 1.71092 12.5739 2.61719 13.4766C4.64063 15.4922 7.1875 16.5625 10 16.5625C12.8125 16.5625 15.3594 15.4922 17.3828 13.4766C18.2891 12.5739 19.0412 11.5288 19.6094 10.3828C19.6597 10.2614 19.6856 10.1314 19.6856 10C19.6856 9.86863 19.6597 9.73855 19.6094 9.61719ZM16.0078 12.1953C14.3359 13.8516 12.3125 14.6875 10 14.6875C7.6875 14.6875 5.66406 13.8516 3.99219 12.1953C3.33313 11.5431 2.76547 10.8046 2.30469 10C2.76342 9.19402 3.33129 8.45527 3.99219 7.80469C5.66406 6.14844 7.6875 5.3125 10 5.3125C12.3125 5.3125 14.3359 6.14844 16.0078 7.80469C16.6669 8.45689 17.2345 9.19538 17.6953 10C17.2345 10.8046 16.6669 11.5431 16.0078 12.1953ZM10 6.5625C9.32013 6.5625 8.65552 6.76411 8.09023 7.14182C7.52494 7.51954 7.08434 8.0564 6.82417 8.68453C6.56399 9.31265 6.49592 10.0038 6.62855 10.6706C6.76119 11.3374 7.08858 11.9499 7.56932 12.4307C8.05007 12.9114 8.66257 13.2388 9.32938 13.3714C9.99619 13.5041 10.6874 13.436 11.3155 13.1758C11.9436 12.9157 12.4805 12.4751 12.8582 11.9098C13.2359 11.3445 13.4375 10.6799 13.4375 10C13.4375 9.08832 13.0753 8.21398 12.4307 7.56932C11.786 6.92466 10.9117 6.5625 10 6.5625ZM10 11.5625C9.69097 11.5625 9.38888 11.4709 9.13192 11.2992C8.87497 11.1275 8.6747 10.8835 8.55644 10.5979C8.43818 10.3124 8.40724 9.99827 8.46753 9.69517C8.52781 9.39208 8.67663 9.11367 8.89515 8.89515C9.11367 8.67663 9.39208 8.52781 9.69517 8.46752C9.99827 8.40723 10.3124 8.43818 10.5979 8.55644C10.8835 8.6747 11.1275 8.87497 11.2992 9.13192C11.4709 9.38887 11.5625 9.69097 11.5625 10C11.5604 10.4138 11.3952 10.81 11.1026 11.1026C10.81 11.3952 10.4138 11.5604 10 11.5625Z" fill="#1C1F1E"/>
</svg>
