<svg width="16" height="27" viewBox="0 0 16 27" fill="none" xmlns="http://www.w3.org/2000/svg">
<g clip-path="url(#clip0_18_717)">
<path d="M11.2913 4.21817C11.2913 5.99119 9.84633 7.43607 8.07132 7.43607C6.29608 7.43607 4.85132 5.99124 4.85132 4.21817C4.85132 2.44484 6.29635 1 8.07132 1C9.84629 1 11.2913 2.44484 11.2913 4.21817Z" stroke="#1C1F1E" stroke-width="2"/>
<path d="M12.2882 14.8244L12.2882 14.8244L14.9744 25.0715C14.9744 25.0716 14.9744 25.0717 14.9744 25.0718C15.0344 25.3011 14.9874 25.5327 14.8457 25.7182C14.7042 25.9035 14.4988 26.0039 14.2729 26.0039H1.79456C1.56867 26.0039 1.36326 25.9035 1.22174 25.7182C1.08003 25.5326 1.03312 25.3011 1.09322 25.072L1.09328 25.0718L3.77928 14.8244C3.77928 14.8244 3.77928 14.8244 3.77928 14.8244C4.29113 12.8718 6.04503 11.5159 8.03386 11.5159C10.0226 11.5159 11.7763 12.8717 12.2882 14.8244Z" stroke="#1C1F1E" stroke-width="2"/>
</g>
<defs>
<clipPath id="clip0_18_717">
<rect width="16" height="27" fill="white"/>
</clipPath>
</defs>
</svg>
