<svg width="24" height="24" viewBox="0 0 24 24" fill="none" xmlns="http://www.w3.org/2000/svg">
<g clip-path="url(#clip0_18_748)">
<path d="M1.6875 4.87829H12.1549C12.4704 6.31426 13.7527 7.39231 15.2821 7.39231C16.8114 7.39231 18.0938 6.31431 18.4093 4.87829H22.3125C22.6922 4.87829 23 4.57046 23 4.19079C23 3.81112 22.6922 3.50329 22.3125 3.50329H18.4089C18.0928 2.06805 16.8087 0.989319 15.2821 0.989319C13.7546 0.989319 12.4711 2.06788 12.1552 3.50329H1.6875C1.30783 3.50329 1 3.81112 1 4.19079C1 4.57046 1.30783 4.87829 1.6875 4.87829ZM13.4557 4.1926C13.4557 4.19015 13.4557 4.18765 13.4557 4.18521C13.4587 3.18115 14.278 2.36436 15.2821 2.36436C16.2848 2.36436 17.1041 3.18004 17.1084 4.18362L17.1086 4.19371C17.107 5.19948 16.2882 6.01735 15.2821 6.01735C14.2764 6.01735 13.4579 5.2003 13.4556 4.19513L13.4557 4.1926ZM22.3125 19.1216H18.4089C18.0928 17.6864 16.8087 16.6076 15.2821 16.6076C13.7546 16.6076 12.4711 17.6862 12.1552 19.1216H1.6875C1.30783 19.1216 1 19.4294 1 19.8091C1 20.1888 1.30783 20.4966 1.6875 20.4966H12.1549C12.4704 21.9326 13.7527 23.0106 15.2821 23.0106C16.8114 23.0106 18.0938 21.9326 18.4093 20.4966H22.3125C22.6922 20.4966 23 20.1888 23 19.8091C23 19.4294 22.6922 19.1216 22.3125 19.1216ZM15.2821 21.6356C14.2764 21.6356 13.4579 20.8186 13.4556 19.8134L13.4557 19.8109C13.4557 19.8084 13.4557 19.806 13.4557 19.8035C13.4587 18.7995 14.278 17.9826 15.2821 17.9826C16.2848 17.9826 17.1041 18.7983 17.1084 19.8019L17.1086 19.812C17.1071 20.8179 16.2883 21.6356 15.2821 21.6356ZM22.3125 11.3125H11.8451C11.5296 9.8765 10.2473 8.7985 8.71792 8.7985C7.18857 8.7985 5.90621 9.8765 5.59074 11.3125H1.6875C1.30783 11.3125 1 11.6203 1 12C1 12.3797 1.30783 12.6875 1.6875 12.6875H5.59108C5.9072 14.1227 7.19128 15.2014 8.71792 15.2014C10.2454 15.2014 11.5289 14.1228 11.8448 12.6875H22.3125C22.6922 12.6875 23 12.3797 23 12C23 11.6203 22.6922 11.3125 22.3125 11.3125ZM10.5443 11.9982C10.5443 12.0007 10.5443 12.0031 10.5443 12.0056C10.5413 13.0096 9.72201 13.8264 8.71792 13.8264C7.71524 13.8264 6.89591 13.0107 6.89157 12.0072L6.89145 11.9971C6.89295 10.9912 7.71172 10.1735 8.71792 10.1735C9.72364 10.1735 10.5421 10.9905 10.5444 11.9957L10.5443 11.9982Z" fill="#1C1F1E" stroke="#1C1F1E" stroke-width="0.6"/>
</g>
<defs>
<clipPath id="clip0_18_748">
<rect width="24" height="24" fill="white"/>
</clipPath>
</defs>
</svg>
