<svg width="26" height="26" viewBox="0 0 26 26" fill="none" xmlns="http://www.w3.org/2000/svg">
<g clip-path="url(#clip0_18_770)">
<path d="M24.9166 22.3033V13.5057C24.9166 12.7967 24.7704 12.0952 24.4871 11.4438C24.2037 10.7924 23.7889 10.2046 23.2681 9.71636L14.8245 1.80197C14.3323 1.34058 13.6794 1.08331 13.0006 1.08331C12.3217 1.08331 11.6688 1.34058 11.1767 1.80197L2.73172 9.71636C2.2109 10.2046 1.79618 10.7924 1.51279 11.4438C1.22939 12.0952 1.08325 12.7967 1.08325 13.5057V22.3033C1.08325 22.9964 1.36225 23.6611 1.85888 24.1512C2.3555 24.6413 3.02907 24.9166 3.7314 24.9166H22.2684C22.9708 24.9166 23.6443 24.6413 24.141 24.1512C24.6376 23.6611 24.9166 22.9964 24.9166 22.3033Z" stroke="#1C1F1E" stroke-width="1.8" stroke-linecap="round" stroke-linejoin="round"/>
<path d="M9.07126 17.9445H10.2223V19.0955C10.2223 19.8159 10.8063 20.4 11.5268 20.4H14.4734C15.1938 20.4 15.7779 19.8159 15.7779 19.0955V17.9445H16.9289C17.6494 17.9445 18.2334 17.3604 18.2334 16.64V13.6933C18.2334 12.9729 17.6494 12.3888 16.9289 12.3888H15.7779V11.2378C15.7779 10.5174 15.1938 9.93331 14.4734 9.93331H11.5268C10.8063 9.93331 10.2223 10.5174 10.2223 11.2378V12.3888H9.07126C8.35081 12.3888 7.76675 12.9729 7.76675 13.6933V16.64C7.76675 17.3604 8.35081 17.9445 9.07126 17.9445Z" stroke="#1C1F1E" stroke-width="1.8"/>
</g>
<defs>
<clipPath id="clip0_18_770">
<rect width="26" height="26" fill="white"/>
</clipPath>
</defs>
</svg>
