<svg width="26" height="26" viewBox="0 0 26 26" fill="none" xmlns="http://www.w3.org/2000/svg">
<path d="M12.9999 13C13.5958 13 14.106 12.7877 14.5307 12.363C14.9546 11.9391 15.1666 11.4292 15.1666 10.8334C15.1666 10.2375 14.9546 9.72727 14.5307 9.3026C14.106 8.87866 13.5958 8.66669 12.9999 8.66669C12.4041 8.66669 11.8942 8.87866 11.4703 9.3026C11.0456 9.72727 10.8333 10.2375 10.8333 10.8334C10.8333 11.4292 11.0456 11.9391 11.4703 12.363C11.8942 12.7877 12.4041 13 12.9999 13ZM12.9999 20.9625C15.2027 18.9403 16.8367 17.103 17.902 15.4505C18.9673 13.7988 19.4999 12.332 19.4999 11.05C19.4999 9.08196 18.8723 7.47033 17.6171 6.2151C16.3626 4.9606 14.8235 4.33335 12.9999 4.33335C11.1763 4.33335 9.63689 4.9606 8.38167 6.2151C7.12717 7.47033 6.49992 9.08196 6.49992 11.05C6.49992 12.332 7.03256 13.7988 8.09784 15.4505C9.16311 17.103 10.7971 18.9403 12.9999 20.9625ZM12.9999 23.4271C12.8555 23.4271 12.711 23.4 12.5666 23.3459C12.4221 23.2917 12.2958 23.2195 12.1874 23.1292C9.55131 20.8 7.58325 18.638 6.28325 16.6433C4.98325 14.6478 4.33325 12.7834 4.33325 11.05C4.33325 8.34169 5.20461 6.18405 6.94734 4.5771C8.68934 2.97016 10.7069 2.16669 12.9999 2.16669C15.293 2.16669 17.3105 2.97016 19.0525 4.5771C20.7952 6.18405 21.6666 8.34169 21.6666 11.05C21.6666 12.7834 21.0166 14.6478 19.7166 16.6433C18.4166 18.638 16.4485 20.8 13.8124 23.1292C13.7041 23.2195 13.5777 23.2917 13.4333 23.3459C13.2888 23.4 13.1444 23.4271 12.9999 23.4271Z" fill="#1C1F1E"/>
</svg>
