<svg width="33" height="32" viewBox="0 0 33 32" fill="none" xmlns="http://www.w3.org/2000/svg">
<g clip-path="url(#clip0_9_454)">
<path fill-rule="evenodd" clip-rule="evenodd" d="M18.012 7.72166C18.012 7.55656 18.012 2.91033 18.012 2.75939C17.6771 -1.03306 12.1197 -0.877401 12.0159 2.93392C12.0159 4.26883 11.9781 7.24052 11.9734 8.55656C11.9728 8.98477 11.8877 9.40866 11.7229 9.80392C11.5582 10.1992 11.317 10.558 11.0133 10.86C10.7096 11.1619 10.3493 11.4009 9.95303 11.5633C9.55677 11.7258 9.13234 11.8084 8.70407 11.8066C8.46347 11.8066 3.46747 11.8443 3.08063 11.8066C2.29487 11.7966 1.53732 12.0991 0.974635 12.6475C0.411945 13.196 0.0902064 13.9454 0.0801968 14.7311C0.0701872 15.5167 0.372727 16.2742 0.921261 16.8368C1.46979 17.3994 2.21939 17.7211 3.00514 17.7311H7.87848C14.0964 17.7311 17.9979 15.533 17.9979 10.2217L18.012 7.72166Z" fill="#66CA98"/>
<path fill-rule="evenodd" clip-rule="evenodd" d="M14.9833 24.2736C14.9833 24.4387 14.9833 29.0849 14.9833 29.2359C15.3182 33.0094 20.8662 32.8632 20.9889 29.0613C20.9889 27.7264 21.0266 24.7547 21.0313 23.4434C21.0313 23.0148 21.116 22.5904 21.2804 22.1946C21.4449 21.7988 21.686 21.4394 21.9897 21.137C22.2935 20.8345 22.654 20.5951 23.0506 20.4324C23.4472 20.2696 23.872 20.1868 24.3006 20.1887C24.5412 20.1887 29.5372 20.151 29.9241 20.1887C30.3221 20.2088 30.72 20.1485 31.0942 20.0113C31.4683 19.874 31.8109 19.6628 32.1014 19.3901C32.392 19.1174 32.6245 18.7889 32.7852 18.4243C32.9458 18.0597 33.0312 17.6664 33.0363 17.268C33.0414 16.8696 32.966 16.4742 32.8147 16.1056C32.6634 15.737 32.4393 15.4027 32.1558 15.1227C31.8723 14.8427 31.5352 14.6228 31.1647 14.4761C30.7942 14.3294 30.3979 14.2589 29.9996 14.2689H25.1168C18.8989 14.2642 14.9974 16.4623 14.9974 21.7642L14.9833 24.2736Z" fill="#F4A3EC"/>
</g>
<defs>
<clipPath id="clip0_9_454">
<rect width="33" height="32" fill="white"/>
</clipPath>
</defs>
</svg>
