<svg width="16" height="28" viewBox="0 0 16 28" fill="none" xmlns="http://www.w3.org/2000/svg">
<g clip-path="url(#clip0_18_720)">
<path d="M11.2234 4.22C11.2234 5.99452 9.77797 7.44 8.00345 7.44C6.2287 7.44 4.78345 5.99456 4.78345 4.22C4.78345 2.44548 6.22892 1 8.00345 1C9.77797 1 11.2234 2.44548 11.2234 4.22Z" stroke="#1C1F1E" stroke-width="2"/>
<path d="M1.16492 12.202L1.16469 12.2023C1.01545 12.405 0.961929 12.6663 1.02766 12.927C1.02769 12.9271 1.02771 12.9272 1.02773 12.9273L3.71394 23.5539L3.71394 23.5539C4.2344 25.613 6.00278 27.0041 7.96606 27.0041C9.92935 27.0041 11.6977 25.613 12.2182 23.5539L12.2182 23.5539L14.9044 12.9275C14.9044 12.9275 14.9044 12.9274 14.9045 12.9273C14.9702 12.6665 14.9168 12.4051 14.7677 12.2023L1.16492 12.202ZM1.16492 12.202C1.31193 12.0022 1.51582 11.9054 1.72703 11.9054H14.2051M1.16492 12.202L14.2051 11.9054M14.2051 11.9054C14.4163 11.9054 14.6201 12.002 14.7675 12.2021L14.2051 11.9054Z" stroke="#1C1F1E" stroke-width="2"/>
</g>
<defs>
<clipPath id="clip0_18_720">
<rect width="16" height="28" fill="white"/>
</clipPath>
</defs>
</svg>
