<svg width="24" height="24" viewBox="0 0 24 24" fill="none" xmlns="http://www.w3.org/2000/svg">
<g clip-path="url(#clip0_18_750)">
<path d="M15.0001 19C15.0003 19.5046 14.8097 19.9906 14.4666 20.3605C14.1235 20.7305 13.6532 20.9572 13.1501 20.995L13.0001 21H11.0001C10.4955 21.0002 10.0095 20.8096 9.63954 20.4665C9.26956 20.1234 9.04294 19.6532 9.00509 19.15L9.00009 19H15.0001ZM12.0001 2C13.8151 1.99997 15.5591 2.70489 16.8643 3.96607C18.1695 5.22726 18.9339 6.94609 18.9961 8.76L19.0001 9V12.764L20.8221 16.408C20.9016 16.567 20.9414 16.7429 20.9381 16.9206C20.9347 17.0984 20.8884 17.2727 20.8029 17.4286C20.7175 17.5845 20.5956 17.7174 20.4476 17.8158C20.2996 17.9143 20.1299 17.9754 19.9531 17.994L19.8381 18H4.16209C3.98426 18.0001 3.80906 17.957 3.65151 17.8745C3.49397 17.792 3.35877 17.6725 3.25751 17.5264C3.15625 17.3802 3.09194 17.2116 3.0701 17.0351C3.04825 16.8586 3.06953 16.6795 3.13209 16.513L3.17809 16.408L5.00009 12.764V9C5.00009 7.14348 5.73759 5.36301 7.05035 4.05025C8.3631 2.7375 10.1436 2 12.0001 2Z" fill="#1C1F1E"/>
</g>
<defs>
<clipPath id="clip0_18_750">
<rect width="24" height="24" fill="white"/>
</clipPath>
</defs>
</svg>
