<svg width="26" height="26" viewBox="0 0 26 26" fill="none" xmlns="http://www.w3.org/2000/svg">
<path d="M4.93932 11.5274V11.5653L5.11046 11.392L12.1492 4.26705C13.3781 3.327 14.6025 2.87757 15.7615 2.93736L15.7616 2.93736C17.3464 3.01875 18.5534 3.60796 19.6133 4.61191C20.6465 5.59066 21.317 6.98503 21.317 8.70876C21.317 10.0372 20.9438 11.1637 20.1986 12.1211L10.2828 22.3356C9.65351 22.8439 8.93398 23.0992 8.15856 23.0684C7.04351 23.0219 6.30682 22.698 5.76674 22.1636L5.76664 22.1635C5.07798 21.4841 4.68314 20.7018 4.68314 19.6039C4.68314 18.7337 4.97993 17.9354 5.59959 17.1783L14.4046 8.19138L14.4046 8.1914L14.406 8.18987C14.6503 7.9298 14.8692 7.73795 15.06 7.60647C15.2517 7.47429 15.4096 7.40695 15.5324 7.38827L15.5337 7.38805C15.7323 7.35514 15.9359 7.37182 16.1265 7.43662C16.3171 7.50142 16.4887 7.61232 16.626 7.75946L16.6265 7.75997C16.8989 8.04767 17.0048 8.36671 16.9601 8.81345L16.9601 8.81352C16.9329 9.0871 16.8195 9.34776 16.5956 9.61164L8.50613 17.8961L8.50594 17.8963C8.33567 18.0716 8.24109 18.3068 8.24258 18.5512C8.24406 18.7956 8.3415 19.0297 8.51388 19.2029L8.5139 19.2029C8.59886 19.2883 8.69995 19.3559 8.8113 19.4017C8.92264 19.4476 9.042 19.4708 9.16242 19.4701C9.28284 19.4694 9.4019 19.4446 9.51267 19.3974C9.62337 19.3502 9.72356 19.2815 9.80742 19.1952L4.93932 11.5274ZM4.93932 11.5274C4.89946 11.552 4.85768 11.5735 4.8143 11.5917C4.70312 11.6384 4.58376 11.6624 4.46318 11.6624C4.3426 11.6624 4.22324 11.6384 4.11206 11.5917C4.00091 11.5451 3.90017 11.4767 3.81573 11.3907M4.93932 11.5274L9.8076 19.195L17.9383 10.8657L17.9385 10.8659L17.9429 10.8607C18.4389 10.2788 18.7121 9.6669 18.7794 9.00007L18.7794 9C18.8766 8.02868 18.5988 7.16996 17.9492 6.48235C17.6102 6.121 17.1881 5.84803 16.7195 5.68721C16.2509 5.52642 15.7502 5.48264 15.2609 5.55967C14.5205 5.67326 13.8081 6.14002 13.0921 6.90347L4.24815 15.933L4.24788 15.9327L4.24235 15.9394C3.30976 17.0734 2.85459 18.2867 2.85459 19.6028C2.85459 21.2549 3.47717 22.4864 4.48919 23.4852C5.35907 24.3454 6.5267 24.8498 8.08426 24.9145L8.08441 24.9145C9.32149 24.964 10.4748 24.5513 11.5082 23.7042L11.5086 23.7047L11.5165 23.6965L21.5655 13.3438L21.5659 13.3442L21.5724 13.3359C22.6399 11.9773 23.1455 10.4449 23.1455 8.70758C23.1455 6.44365 22.2499 4.5727 20.8641 3.26122L20.7953 3.33385L20.864 3.26121C19.5083 1.97836 17.9073 1.19432 15.8533 1.08898L15.8533 1.08898C14.2135 1.00591 12.5739 1.61713 10.9533 2.8755L10.9527 2.87483L10.9435 2.88413L3.81598 10.0838L3.81573 10.084C3.6444 10.2583 3.5484 10.4929 3.5484 10.7374C3.5484 10.9818 3.6444 11.2164 3.81573 11.3907M3.81573 11.3907C3.81571 11.3907 3.81569 11.3906 3.81567 11.3906L3.88704 11.3206L3.81573 11.3907Z" fill="#1C1F1E" stroke="#1C1F1E" stroke-width="0.2"/>
</svg>
