<svg width="26" height="28" viewBox="0 0 26 28" fill="none" xmlns="http://www.w3.org/2000/svg">
<path d="M12.8146 13.1316C14.5352 13.1316 16.0249 12.524 17.2425 11.3252C18.4597 10.1265 19.077 8.65993 19.077 6.9656C19.077 5.27185 18.4599 3.80506 17.2423 2.60604C16.0247 1.4076 14.535 0.799988 12.8146 0.799988C11.0938 0.799988 9.60428 1.4076 8.38692 2.60623C7.16956 3.80487 6.55225 5.27166 6.55225 6.9656C6.55225 8.65993 7.16956 10.1267 8.38692 11.3254C9.60468 12.5238 11.0944 13.1316 12.8146 13.1316ZM9.46443 3.66697C10.3985 2.74725 11.4943 2.30018 12.8146 2.30018C14.1347 2.30018 15.2307 2.74725 16.165 3.66697C17.0991 4.5869 17.5533 5.66599 17.5533 6.9656C17.5533 8.2656 17.0991 9.3445 16.165 10.2644C15.2307 11.1843 14.1347 11.6314 12.8146 11.6314C11.4947 11.6314 10.3989 11.1841 9.46443 10.2644C8.53014 9.3447 8.07588 8.2656 8.07588 6.9656C8.07588 5.66599 8.53014 4.5869 9.46443 3.66697Z" fill="#1C1F1E" stroke="#1C1F1E" stroke-width="0.6"/>
<path d="M23.7722 21.2851C23.7371 20.7863 23.666 20.2422 23.5615 19.6676C23.456 19.0887 23.3201 18.5414 23.1574 18.0412C22.9892 17.5242 22.7609 17.0137 22.4782 16.5244C22.1853 16.0166 21.8409 15.5744 21.4545 15.2105C21.0504 14.8299 20.5557 14.5238 19.9836 14.3006C19.4135 14.0785 18.7817 13.966 18.1059 13.966C17.8405 13.966 17.5838 14.0732 17.0881 14.391C16.783 14.5869 16.4261 14.8135 16.0278 15.0641C15.6872 15.2777 15.2258 15.4779 14.6559 15.6592C14.0999 15.8363 13.5354 15.9262 12.978 15.9262C12.421 15.9262 11.8564 15.8363 11.3 15.6592C10.7307 15.4781 10.2691 15.2779 9.92912 15.0643C9.53458 14.816 9.17752 14.5895 8.86787 14.3908C8.37256 14.073 8.11588 13.9658 7.85046 13.9658C7.17444 13.9658 6.54285 14.0785 5.97295 14.3008C5.40126 14.5236 4.90634 14.8297 4.50188 15.2107C4.11546 15.5748 3.7711 16.0168 3.47832 16.5244C3.19604 17.0137 2.96753 17.524 2.79932 18.0414C2.63686 18.5416 2.50098 19.0887 2.39545 19.6676C2.29071 20.2414 2.21989 20.7857 2.18478 21.2857C2.15027 21.7746 2.13281 22.2834 2.13281 22.7974C2.13281 24.1338 2.56425 25.2156 3.41504 26.0135C4.25531 26.8008 5.36694 27.2 6.71919 27.2H19.2384C20.5902 27.2 21.7018 26.8008 22.5423 26.0135C23.3933 25.2162 23.8247 24.134 23.8247 22.7972C23.8245 22.2814 23.8069 21.7726 23.7722 21.2851ZM21.4918 24.9265C20.9366 25.4469 20.1994 25.6998 19.2382 25.6998H6.71919C5.75772 25.6998 5.0206 25.4469 4.46558 24.9267C3.92107 24.4164 3.65645 23.7197 3.65645 22.7974C3.65645 22.3178 3.67252 21.8441 3.70465 21.3894C3.73599 20.9433 3.80006 20.4533 3.89508 19.9326C3.98891 19.4183 4.10832 18.9357 4.25035 18.4988C4.38663 18.0799 4.57249 17.665 4.80299 17.2654C5.02298 16.8846 5.27609 16.5578 5.55539 16.2945C5.81664 16.0482 6.14592 15.8467 6.53392 15.6955C6.89276 15.5557 7.29604 15.4791 7.73383 15.4676C7.78719 15.4955 7.8822 15.5488 8.03613 15.6477C8.34935 15.8486 8.71037 16.0779 9.10948 16.3289C9.55937 16.6113 10.139 16.8664 10.8315 17.0865C11.5394 17.3119 12.2615 17.4264 12.9782 17.4264C13.6949 17.4264 14.4171 17.3119 15.1247 17.0867C15.8178 16.8662 16.3972 16.6113 16.8477 16.3285C17.2561 16.0715 17.607 15.8488 17.9202 15.6477C18.0742 15.549 18.1692 15.4955 18.2225 15.4676C18.6605 15.4791 19.0638 15.5557 19.4228 15.6955C19.8106 15.8467 20.1399 16.0484 20.4012 16.2945C20.6805 16.5576 20.9336 16.8844 21.1536 17.2656C21.3843 17.665 21.5703 18.0801 21.7064 18.4986C21.8486 18.9361 21.9682 19.4185 22.0619 19.9324C22.1567 20.4541 22.221 20.9443 22.2523 21.3896V21.39C22.2846 21.843 22.3009 22.3164 22.3011 22.7974C22.3009 23.7199 22.0363 24.4164 21.4918 24.9265Z" fill="#1C1F1E" stroke="#1C1F1E" stroke-width="0.6"/>
</svg>
