<svg width="26" height="26" viewBox="0 0 26 26" fill="none" xmlns="http://www.w3.org/2000/svg">
<path d="M12.039 13.887L12.0259 13.8737L12.0123 13.8609C10.9772 12.8863 10.1444 11.7197 9.5592 10.4281L11.0182 8.67438L11.0363 8.6527L11.053 8.63005C11.229 8.39251 11.324 8.10473 11.324 7.80912C11.324 7.52319 11.2351 7.24459 11.0701 7.01169L8.28012 2.87465C8.10236 2.59982 7.86557 2.36798 7.58691 2.19605L7.06181 3.04709L7.5869 2.19605C7.304 2.0215 6.98528 1.91321 6.6546 1.8793C6.32392 1.84538 5.98985 1.88672 5.67741 2.0002C5.37066 2.11162 5.09255 2.28976 4.86314 2.52166L2.83011 4.48293C2.42202 4.86943 2.12024 5.35448 1.95386 5.89143C1.78689 6.4303 1.76195 7.00317 1.88145 7.55452L1.88182 7.55619C2.76349 11.5904 4.79688 15.2821 7.73533 18.1834L7.74108 18.1891L7.74692 18.1947C10.7465 21.0622 14.4923 23.028 18.5562 23.8676C19.1065 23.9824 19.6766 23.9594 20.2158 23.8004C20.7553 23.6414 21.2471 23.3512 21.6473 22.9559L23.6118 21.0153C23.8559 20.785 24.0442 20.502 24.1624 20.1878C24.2826 19.868 24.3268 19.5246 24.2916 19.1848C24.2563 18.845 24.1425 18.518 23.9592 18.2297L23.1154 18.7663L23.9592 18.2297C23.779 17.9464 23.5365 17.7081 23.2504 17.5329L19.0576 14.8315C18.827 14.6775 18.5558 14.5952 18.2782 14.5952C17.994 14.5952 17.7164 14.6815 17.4823 14.8427L17.4539 14.8623L17.4268 14.8838L15.6125 16.3276C14.2764 15.7534 13.0624 14.9251 12.039 13.887Z" stroke="#1C1F1E" stroke-width="2"/>
</svg>
