<svg width="14" height="14" viewBox="0 0 14 14" fill="none" xmlns="http://www.w3.org/2000/svg">
<path fill-rule="evenodd" clip-rule="evenodd" d="M6.00005 0.333374C5.09644 0.333451 4.20596 0.549617 3.40288 0.963837C2.59981 1.37806 1.90744 1.97832 1.38354 2.71454C0.859633 3.45077 0.519387 4.3016 0.391186 5.19607C0.262985 6.09053 0.350546 7.00269 0.646566 7.85643C0.942585 8.71017 1.43848 9.48074 2.09287 10.1039C2.74727 10.727 3.54118 11.1846 4.40839 11.4384C5.2756 11.6923 6.19094 11.7351 7.07806 11.5633C7.96518 11.3915 8.79835 11.01 9.50805 10.4507L11.9427 12.8854C12.0684 13.0068 12.2369 13.074 12.4116 13.0725C12.5864 13.071 12.7537 13.0009 12.8773 12.8773C13.0009 12.7536 13.071 12.5864 13.0725 12.4116C13.074 12.2368 13.0068 12.0684 12.8854 11.9427L10.4507 9.50804C11.1094 8.67245 11.5195 7.66831 11.6341 6.61052C11.7487 5.55274 11.5632 4.48405 11.0989 3.52677C10.6345 2.56948 9.90997 1.76228 9.00825 1.19753C8.10653 0.632778 7.06402 0.333303 6.00005 0.333374ZM1.66671 6.00004C1.66671 4.85077 2.12326 3.74857 2.93592 2.93591C3.74858 2.12325 4.85078 1.66671 6.00005 1.66671C7.14932 1.66671 8.25152 2.12325 9.06418 2.93591C9.87683 3.74857 10.3334 4.85077 10.3334 6.00004C10.3334 7.14931 9.87683 8.25151 9.06418 9.06417C8.25152 9.87683 7.14932 10.3334 6.00005 10.3334C4.85078 10.3334 3.74858 9.87683 2.93592 9.06417C2.12326 8.25151 1.66671 7.14931 1.66671 6.00004Z" fill="#A7A6A5"/>
</svg>
