<svg width="26" height="26" viewBox="0 0 26 26" fill="none" xmlns="http://www.w3.org/2000/svg">
<path d="M12.9999 19.7979L8.50406 22.5062C8.30545 22.6326 8.09781 22.6868 7.88114 22.6687C7.66448 22.6507 7.47489 22.5785 7.31239 22.4521C7.14989 22.3257 7.0235 22.1679 6.93323 21.9787C6.84295 21.7887 6.82489 21.5764 6.87906 21.3417L8.07073 16.2229L4.08948 12.7833C3.90892 12.6208 3.79625 12.4356 3.75148 12.2276C3.70598 12.0203 3.71934 11.8173 3.79156 11.6187C3.86378 11.4201 3.97212 11.2576 4.11656 11.1312C4.261 11.0048 4.45962 10.9236 4.71239 10.8875L9.96656 10.4271L11.9978 5.60624C12.0881 5.38957 12.2282 5.22707 12.4181 5.11874C12.6074 5.0104 12.8013 4.95624 12.9999 4.95624C13.1985 4.95624 13.3928 5.0104 13.5827 5.11874C13.7719 5.22707 13.9117 5.38957 14.002 5.60624L16.0332 10.4271L21.2874 10.8875C21.5402 10.9236 21.7388 11.0048 21.8832 11.1312C22.0277 11.2576 22.136 11.4201 22.2082 11.6187C22.2804 11.8173 22.2942 12.0203 22.2494 12.2276C22.2039 12.4356 22.0909 12.6208 21.9103 12.7833L17.9291 16.2229L19.1207 21.3417C19.1749 21.5764 19.1568 21.7887 19.0666 21.9787C18.9763 22.1679 18.8499 22.3257 18.6874 22.4521C18.5249 22.5785 18.3353 22.6507 18.1186 22.6687C17.902 22.6868 17.6943 22.6326 17.4957 22.5062L12.9999 19.7979Z" fill="#1C1F1E"/>
</svg>
