<svg width="34" height="34" viewBox="0 0 34 34" fill="none" xmlns="http://www.w3.org/2000/svg">
<path d="M21.25 14.1667L27.7001 10.9423C27.916 10.8344 28.1559 10.7835 28.3971 10.7943C28.6382 10.8052 28.8726 10.8775 29.0779 11.0044C29.2833 11.1313 29.4528 11.3085 29.5704 11.5193C29.6881 11.7301 29.7499 11.9674 29.75 12.2088V21.7912C29.7499 22.0325 29.6881 22.2699 29.5704 22.4807C29.4528 22.6915 29.2833 22.8687 29.0779 22.9956C28.8726 23.1225 28.6382 23.1948 28.3971 23.2056C28.1559 23.2165 27.916 23.1656 27.7001 23.0577L21.25 19.8333V14.1667Z" stroke="#1C1F1E" stroke-width="2" stroke-linecap="round" stroke-linejoin="round"/>
<path d="M18.4167 8.5H7.08333C5.51853 8.5 4.25 9.76853 4.25 11.3333V22.6667C4.25 24.2315 5.51853 25.5 7.08333 25.5H18.4167C19.9815 25.5 21.25 24.2315 21.25 22.6667V11.3333C21.25 9.76853 19.9815 8.5 18.4167 8.5Z" stroke="#1C1F1E" stroke-width="2" stroke-linecap="round" stroke-linejoin="round"/>
</svg>
